<svg width="18" height="18" viewBox="0 0 18 18" fill="none" xmlns="http://www.w3.org/2000/svg">
<path d="M15.5039 3.69141L12.0621 0.246094C11.9039 0.0878906 11.6895 0 11.4645 0H11.25V4.5H15.75V4.28555C15.75 4.06406 15.6621 3.84961 15.5039 3.69141ZM6.76406 11.8125C6.13477 11.8125 5.625 12.2379 5.625 12.7617C5.625 13.2891 6.13828 13.7109 6.76758 13.7109C7.39687 13.7109 7.90664 13.2855 7.90664 12.7617C7.90664 12.2379 7.39336 11.8125 6.76406 11.8125ZM10.125 4.78125V0H7.88906V1.125H6.76406V0H3.09375C2.62617 0 2.25 0.376172 2.25 0.84375V17.1562C2.25 17.6238 2.62617 18 3.09375 18H14.9062C15.3738 18 15.75 17.6238 15.75 17.1562V5.625H10.9688C10.5047 5.625 10.125 5.24531 10.125 4.78125ZM5.62148 1.125H6.74648V2.25H5.62148V1.125ZM6.75703 14.625C5.58984 14.625 4.71797 13.5563 4.95 12.4137L5.63906 9V7.875H6.76406V6.75H5.63906V5.625H6.76406V4.5H5.63906V3.375H6.76406V2.25H7.88906V3.375H6.76406V4.5H7.88906V5.625H6.76406V6.75H7.88906V7.875H6.76406V9H7.54102C7.74141 9 7.91719 9.14414 7.95586 9.34102L8.56406 12.4242C8.78906 13.5633 7.91719 14.625 6.75703 14.625Z" fill="#06429E"/>
</svg>
