<svg width="18" height="18" viewBox="0 0 18 18" fill="none" xmlns="http://www.w3.org/2000/svg">
<path d="M10.125 4.78125V0H3.09375C2.62617 0 2.25 0.376172 2.25 0.84375V17.1562C2.25 17.6238 2.62617 18 3.09375 18H14.9062C15.3738 18 15.75 17.6238 15.75 17.1562V5.625H10.9688C10.5047 5.625 10.125 5.24531 10.125 4.78125ZM12.375 13.0781C12.375 13.3102 12.1852 13.5 11.9531 13.5H6.04688C5.81484 13.5 5.625 13.3102 5.625 13.0781V12.7969C5.625 12.5648 5.81484 12.375 6.04688 12.375H11.9531C12.1852 12.375 12.375 12.5648 12.375 12.7969V13.0781ZM12.375 10.8281C12.375 11.0602 12.1852 11.25 11.9531 11.25H6.04688C5.81484 11.25 5.625 11.0602 5.625 10.8281V10.5469C5.625 10.3148 5.81484 10.125 6.04688 10.125H11.9531C12.1852 10.125 12.375 10.3148 12.375 10.5469V10.8281ZM12.375 8.29688V8.57812C12.375 8.81016 12.1852 9 11.9531 9H6.04688C5.81484 9 5.625 8.81016 5.625 8.57812V8.29688C5.625 8.06484 5.81484 7.875 6.04688 7.875H11.9531C12.1852 7.875 12.375 8.06484 12.375 8.29688ZM15.75 4.28555V4.5H11.25V0H11.4645C11.6895 0 11.9039 0.0878906 12.0621 0.246094L15.5039 3.69141C15.6621 3.84961 15.75 4.06406 15.75 4.28555Z" fill="#06429E"/>
</svg>
