<svg width="18" height="18" viewBox="0 0 18 18" fill="none" xmlns="http://www.w3.org/2000/svg">
<path d="M8.64492 9.00352C8.46914 8.44102 8.47266 7.35469 8.57461 7.35469C8.86992 7.35469 8.8418 8.65195 8.64492 9.00352ZM8.58516 10.6629C8.31445 11.373 7.97695 12.1852 7.58672 12.8672C8.23008 12.6211 8.95781 12.2625 9.79805 12.0973C9.35156 11.7598 8.92266 11.2746 8.58516 10.6629ZM5.27695 15.0504C5.27695 15.0785 5.74102 14.8605 6.50391 13.6371C6.26836 13.8586 5.48086 14.4984 5.27695 15.0504ZM10.9688 5.625H15.75V17.1562C15.75 17.6238 15.3738 18 14.9062 18H3.09375C2.62617 18 2.25 17.6238 2.25 17.1562V0.84375C2.25 0.376172 2.62617 0 3.09375 0H10.125V4.78125C10.125 5.24531 10.5047 5.625 10.9688 5.625ZM10.6875 11.6648C9.98438 11.2359 9.5168 10.6453 9.18633 9.77344C9.34453 9.12305 9.59414 8.13516 9.4043 7.51641C9.23906 6.48281 7.91367 6.58477 7.72383 7.27734C7.54805 7.9207 7.70977 8.82773 8.00859 9.98438C7.60078 10.9547 6.99961 12.2555 6.57422 13.0008C6.5707 13.0008 6.5707 13.0043 6.56719 13.0043C5.61445 13.493 3.97969 14.5687 4.65117 15.3949C4.84805 15.6375 5.21367 15.7465 5.40703 15.7465C6.03633 15.7465 6.66211 15.1137 7.55508 13.5738C8.46211 13.275 9.45703 12.9023 10.3324 12.7582C11.0953 13.173 11.9883 13.4437 12.5824 13.4437C13.609 13.4437 13.6793 12.3188 13.275 11.918C12.7863 11.4398 11.366 11.577 10.6875 11.6648ZM15.5039 3.69141L12.0586 0.246094C11.9004 0.0878906 11.6859 0 11.4609 0H11.25V4.5H15.75V4.28555C15.75 4.06406 15.6621 3.84961 15.5039 3.69141ZM12.8988 12.6668C13.043 12.5719 12.8109 12.2484 11.3941 12.3504C12.6984 12.9059 12.8988 12.6668 12.8988 12.6668Z" fill="#06429E"/>
</svg>
