<?xml version="1.0" encoding="UTF-8"?>
<svg xmlns="http://www.w3.org/2000/svg" viewBox="0 0 202.69 65.91">
  <defs>
    <style>.cls-1{fill:#074cb8;}.cls-2{fill:#00aeef;}.cls-3{fill:#6c44b4;}.cls-4{fill:#7ac143;}.cls-5{fill:#ffbf3f;}.cls-6{fill:#e21a7d;}</style>
  </defs>
  <g id="Layer_2" data-name="Layer 2">
    <g id="logo">
      <path class="cls-1" d="M87.52,39.39c.5,0,.91,0,1.23,0a3.65,3.65,0,0,0,.77-.16.67.67,0,0,0,.37-.25.6.6,0,0,0,.1-.35,1.12,1.12,0,0,0-.08-.39,7,7,0,0,0-.48-1h0l-7-10.55,6.4-8.39c.3-.47.5-.81.61-1a1.41,1.41,0,0,0,.16-.64.53.53,0,0,0-.1-.32.82.82,0,0,0-.39-.24,3.57,3.57,0,0,0-.75-.16c-.31,0-.71-.05-1.19-.05s-.85,0-1.16,0a3.16,3.16,0,0,0-.73.12,1.3,1.3,0,0,0-.47.24,1.48,1.48,0,0,0-.31.39h0l-6.84,9.92V16.61a.57.57,0,0,0-.1-.34.85.85,0,0,0-.38-.23,4,4,0,0,0-.72-.15c-.3,0-.69-.05-1.16-.05s-.84,0-1.14.05a4,4,0,0,0-.73.15.89.89,0,0,0-.39.23.52.52,0,0,0-.12.34h0v22a.52.52,0,0,0,.12.34.82.82,0,0,0,.39.24,3.22,3.22,0,0,0,.73.16c.3,0,.69,0,1.14,0s.86,0,1.16,0a3.25,3.25,0,0,0,.72-.16.78.78,0,0,0,.38-.24.57.57,0,0,0,.1-.34h0V27.52L84.75,38.6a1.21,1.21,0,0,0,.35.43,1.64,1.64,0,0,0,.74.27,10.9,10.9,0,0,0,1.68.09Z"></path>
      <path class="cls-1" d="M94.82,19.55A3.06,3.06,0,0,0,96.89,19a2.55,2.55,0,0,0,.56-1.89,2.47,2.47,0,0,0-.54-1.83,3,3,0,0,0-2.06-.52,3.06,3.06,0,0,0-2.08.53,2.61,2.61,0,0,0-.55,1.91,2.49,2.49,0,0,0,.53,1.82,3.07,3.07,0,0,0,2.07.5Z"></path>
      <path class="cls-1" d="M94.83,39.39c.45,0,.82,0,1.1,0a3.3,3.3,0,0,0,.7-.14A.81.81,0,0,0,97,39a.52.52,0,0,0,.11-.32h0v-16A.52.52,0,0,0,97,22.3a.91.91,0,0,0-.37-.23,2.73,2.73,0,0,0-.7-.15,8.12,8.12,0,0,0-1.1-.06,8.33,8.33,0,0,0-1.1.06,2.64,2.64,0,0,0-.69.15.91.91,0,0,0-.37.23.52.52,0,0,0-.11.32h0V38.67a.52.52,0,0,0,.11.32.81.81,0,0,0,.37.22,3.19,3.19,0,0,0,.69.14c.29,0,.66,0,1.1,0Z"></path>
      <path class="cls-1" d="M107.17,39.68a9.45,9.45,0,0,0,1.61-.14,10.91,10.91,0,0,0,1.45-.38,7.32,7.32,0,0,0,1.19-.54,3.41,3.41,0,0,0,.74-.5,1.19,1.19,0,0,0,.28-.34,1.82,1.82,0,0,0,.11-.35c0-.15,0-.33.07-.54s0-.47,0-.78a8.58,8.58,0,0,0,0-1,3.08,3.08,0,0,0-.1-.63.63.63,0,0,0-.17-.33.4.4,0,0,0-.27-.09,1,1,0,0,0-.58.28c-.22.19-.51.39-.84.62a6.21,6.21,0,0,1-1.18.62,4.19,4.19,0,0,1-1.62.28,3.7,3.7,0,0,1-1.61-.33,2.93,2.93,0,0,1-1.16-1,5.15,5.15,0,0,1-.69-1.66,9.82,9.82,0,0,1-.24-2.29,7.1,7.1,0,0,1,.94-4,3.11,3.11,0,0,1,2.71-1.36,4.22,4.22,0,0,1,1.55.26,6.15,6.15,0,0,1,1.12.55c.31.21.58.39.81.56a1.11,1.11,0,0,0,.65.26c.19,0,.35-.15.47-.43a4.15,4.15,0,0,0,.18-1.47c0-.3,0-.55,0-.76s0-.39-.07-.54a1.28,1.28,0,0,0-.13-.35,1.75,1.75,0,0,0-.28-.33,3.32,3.32,0,0,0-.68-.47,6.83,6.83,0,0,0-1.08-.49,8,8,0,0,0-1.3-.34,8.22,8.22,0,0,0-1.41-.13,9.2,9.2,0,0,0-3.25.56,6.85,6.85,0,0,0-2.56,1.72,8,8,0,0,0-1.68,2.91,12.65,12.65,0,0,0-.61,4.17,12.73,12.73,0,0,0,.5,3.72,7.48,7.48,0,0,0,1.47,2.75,6.15,6.15,0,0,0,2.4,1.7,8.71,8.71,0,0,0,3.3.58Z"></path>
      <path class="cls-1" d="M127.8,39.39c.48,0,.87,0,1.17,0a4,4,0,0,0,.71-.13A.62.62,0,0,0,130,39a.48.48,0,0,0,.1-.31,1.25,1.25,0,0,0-.1-.48,3.94,3.94,0,0,0-.31-.62h0l-5.45-8.42L129,23.83a3.18,3.18,0,0,0,.4-.65,1.48,1.48,0,0,0,.14-.58.52.52,0,0,0-.11-.33A.79.79,0,0,0,129,22a3.57,3.57,0,0,0-.74-.13c-.3,0-.68-.05-1.12-.05a11.24,11.24,0,0,0-1.13.05,4.15,4.15,0,0,0-.74.13,1.22,1.22,0,0,0-.48.26,1.64,1.64,0,0,0-.32.37h0l-4.76,6.41V15a.57.57,0,0,0-.11-.33.75.75,0,0,0-.37-.24,3.07,3.07,0,0,0-.69-.16,10.88,10.88,0,0,0-1.1-.05,10.59,10.59,0,0,0-1.1.05,3.17,3.17,0,0,0-.7.16.75.75,0,0,0-.37.24.57.57,0,0,0-.11.33h0V38.67a.52.52,0,0,0,.11.32.81.81,0,0,0,.37.22,3.3,3.3,0,0,0,.7.14c.28,0,.65,0,1.1,0s.81,0,1.1,0a3.19,3.19,0,0,0,.69-.14.81.81,0,0,0,.37-.22.52.52,0,0,0,.11-.32h0V30.16l5.35,8.47a1.31,1.31,0,0,0,.29.38,1.16,1.16,0,0,0,.46.23,5.3,5.3,0,0,0,.76.12q.47,0,1.2,0Z"></path>
      <path class="cls-1" d="M138.91,39.7a11.74,11.74,0,0,0,3.35-.47,8,8,0,0,0,2.74-1.4,6.73,6.73,0,0,0,1.86-2.32,7.13,7.13,0,0,0,.68-3.22A6,6,0,0,0,146,28a7.61,7.61,0,0,0-1.61-1.32,19.1,19.1,0,0,0-1.84-1c-.62-.29-1.24-.56-1.84-.82a12.68,12.68,0,0,1-1.61-.83,4,4,0,0,1-1.14-1,2.2,2.2,0,0,1-.42-1.34,2.62,2.62,0,0,1,.19-1,2.06,2.06,0,0,1,.57-.8,2.72,2.72,0,0,1,1-.52,4.19,4.19,0,0,1,1.35-.19,6.52,6.52,0,0,1,1.82.24,12,12,0,0,1,1.46.54c.42.2.78.39,1.07.55a1.54,1.54,0,0,0,.63.26.43.43,0,0,0,.31-.11.68.68,0,0,0,.18-.34,2.38,2.38,0,0,0,.09-.6c0-.24,0-.53,0-.88s0-.58,0-.79a3.25,3.25,0,0,0-.06-.52,1.4,1.4,0,0,0-.11-.33,1.13,1.13,0,0,0-.24-.31,3.05,3.05,0,0,0-.74-.45,9.29,9.29,0,0,0-1.28-.49,11.41,11.41,0,0,0-1.55-.34,10.32,10.32,0,0,0-1.66-.13,10.79,10.79,0,0,0-3,.42A7,7,0,0,0,135,17.2a6.14,6.14,0,0,0-1.68,2.11,6.7,6.7,0,0,0-.62,3,6.55,6.55,0,0,0,.44,2.51,6.14,6.14,0,0,0,1.12,1.81,7.35,7.35,0,0,0,1.58,1.31,16.93,16.93,0,0,0,1.82,1l1.82.82a11.08,11.08,0,0,1,1.58.83,4.27,4.27,0,0,1,1.13,1,2.17,2.17,0,0,1,.43,1.36,2.92,2.92,0,0,1-.25,1.24,2.42,2.42,0,0,1-.73.94,3.62,3.62,0,0,1-1.16.59,5.37,5.37,0,0,1-1.56.2,8.06,8.06,0,0,1-2.31-.29,11.23,11.23,0,0,1-1.73-.66,12.57,12.57,0,0,1-1.18-.66A1.45,1.45,0,0,0,133,34a.55.55,0,0,0-.31.1.67.67,0,0,0-.22.34,2.62,2.62,0,0,0-.12.61c0,.25,0,.56,0,.94a6.84,6.84,0,0,0,.09,1.27,1.33,1.33,0,0,0,.34.67,3.59,3.59,0,0,0,.77.55,7.6,7.6,0,0,0,1.32.58,12.38,12.38,0,0,0,4.08.68Z"></path>
      <path class="cls-1" d="M155.76,39.64a8.44,8.44,0,0,0,1,0c.33,0,.63-.09.92-.15a4.81,4.81,0,0,0,.73-.24,1.42,1.42,0,0,0,.48-.3,1.3,1.3,0,0,0,.26-.6,5.43,5.43,0,0,0,.1-1.22,6.47,6.47,0,0,0,0-.83,3.53,3.53,0,0,0-.1-.51.45.45,0,0,0-.15-.25.35.35,0,0,0-.21-.07.61.61,0,0,0-.28.07l-.38.14a4.5,4.5,0,0,1-.51.15,3.27,3.27,0,0,1-.65.06,1.6,1.6,0,0,1-1.48-.66,3.72,3.72,0,0,1-.42-2h0V25.65h3.52c.23,0,.4-.14.52-.42a4,4,0,0,0,.18-1.42,7.34,7.34,0,0,0,0-.88,2.15,2.15,0,0,0-.14-.57.65.65,0,0,0-.22-.3.57.57,0,0,0-.32-.09H155V18.38a.51.51,0,0,0-.1-.32.89.89,0,0,0-.37-.25,3,3,0,0,0-.69-.14,11,11,0,0,0-1.11-.05,10.82,10.82,0,0,0-1.09.05,3.17,3.17,0,0,0-.7.14.69.69,0,0,0-.36.25.51.51,0,0,0-.1.32h0V22h-1.91a.57.57,0,0,0-.32.09.67.67,0,0,0-.23.3,2.19,2.19,0,0,0-.13.57,7.1,7.1,0,0,0-.05.88,4,4,0,0,0,.18,1.42.58.58,0,0,0,.53.42h1.93v8.24a9.62,9.62,0,0,0,.3,2.56,4.57,4.57,0,0,0,1,1.8,3.93,3.93,0,0,0,1.64,1,7.13,7.13,0,0,0,2.34.34Z"></path>
      <path class="cls-1" d="M168.83,21.56a12.24,12.24,0,0,1,3.24.37,5.34,5.34,0,0,1,2.2,1.13,4.44,4.44,0,0,1,1.27,2,9.33,9.33,0,0,1,.39,2.86h0V38.79a.43.43,0,0,1-.18.33,1.17,1.17,0,0,1-.56.21,11.34,11.34,0,0,1-2.33,0,.94.94,0,0,1-.52-.21.51.51,0,0,1-.16-.4h0V37.44l-.16.18a7.42,7.42,0,0,1-2.1,1.48,6.54,6.54,0,0,1-2.82.6,7.69,7.69,0,0,1-2.36-.34,5.22,5.22,0,0,1-1.85-1,4.4,4.4,0,0,1-1.22-1.63,5.54,5.54,0,0,1-.43-2.27,5.15,5.15,0,0,1,.55-2.45,4.4,4.4,0,0,1,1.64-1.71,8.2,8.2,0,0,1,2.71-1,19.14,19.14,0,0,1,3.77-.32h1.57V27.8a5.73,5.73,0,0,0-.15-1.11,2.23,2.23,0,0,0-.51-1,2.09,2.09,0,0,0-.94-.56,5,5,0,0,0-1.45-.18,7.42,7.42,0,0,0-2,.25,13,13,0,0,0-1.58.56c-.45.21-.83.39-1.14.56a1.67,1.67,0,0,1-.75.25.55.55,0,0,1-.35-.12,1,1,0,0,1-.25-.36,2.53,2.53,0,0,1-.16-.58,5.81,5.81,0,0,1,0-.76,3.39,3.39,0,0,1,.09-.88,1.36,1.36,0,0,1,.34-.59,3.88,3.88,0,0,1,.89-.58,10.48,10.48,0,0,1,1.47-.58,13.56,13.56,0,0,1,1.85-.44,11.72,11.72,0,0,1,2.07-.17Zm2.65,10.28h-2a8.51,8.51,0,0,0-1.64.16,3.77,3.77,0,0,0-1.26.48,2,2,0,0,0-.71.79,2.38,2.38,0,0,0-.23,1,2,2,0,0,0,.64,1.59,2.54,2.54,0,0,0,1.78.58,3.29,3.29,0,0,0,1.76-.49,7.31,7.31,0,0,0,1.63-1.42h0V31.84Z"></path>
      <path class="cls-1" d="M180.74,39.39c.44,0,.81,0,1.1,0a3.19,3.19,0,0,0,.69-.14.81.81,0,0,0,.37-.22.52.52,0,0,0,.11-.32h0v-10a13.45,13.45,0,0,1,.94-1.33,6.43,6.43,0,0,1,.85-.87,3.16,3.16,0,0,1,.79-.47,1.84,1.84,0,0,1,.75-.16,2.77,2.77,0,0,1,.6.06l.5.14.4.14a1.05,1.05,0,0,0,.33.06.44.44,0,0,0,.29-.09.64.64,0,0,0,.19-.33,2.78,2.78,0,0,0,.11-.65c0-.27,0-.63,0-1.06s0-.77,0-1a3.3,3.3,0,0,0-.06-.57,1.3,1.3,0,0,0-.08-.29.46.46,0,0,0-.14-.2.94.94,0,0,0-.32-.17,3.78,3.78,0,0,0-.5-.15l-.56-.09a4.52,4.52,0,0,0-.51,0,3.94,3.94,0,0,0-1,.13,3.27,3.27,0,0,0-1,.48,6.62,6.62,0,0,0-1.07.93,12.28,12.28,0,0,0-1.19,1.49h0v-2a.54.54,0,0,0-.09-.31A.67.67,0,0,0,182,22a2.18,2.18,0,0,0-.58-.13,8.31,8.31,0,0,0-1-.05,7.88,7.88,0,0,0-.93.05,2.58,2.58,0,0,0-.6.13.67.67,0,0,0-.33.23.54.54,0,0,0-.09.31h0V38.67a.52.52,0,0,0,.11.32.81.81,0,0,0,.37.22,3.3,3.3,0,0,0,.7.14c.28,0,.65,0,1.1,0Z"></path>
      <path class="cls-1" d="M198.56,39.64a8.37,8.37,0,0,0,1,0c.33,0,.63-.09.92-.15a5,5,0,0,0,.74-.24,1.36,1.36,0,0,0,.47-.3,1.4,1.4,0,0,0,.27-.6,6.1,6.1,0,0,0,.1-1.22,6.25,6.25,0,0,0-.05-.83,3.53,3.53,0,0,0-.1-.51.4.4,0,0,0-.15-.25.35.35,0,0,0-.21-.07.64.64,0,0,0-.28.07l-.38.14a4.5,4.5,0,0,1-.51.15,3.2,3.2,0,0,1-.65.06,1.61,1.61,0,0,1-1.48-.66,3.73,3.73,0,0,1-.41-2h0V25.65h3.51c.23,0,.4-.14.53-.42a4,4,0,0,0,.18-1.42,7.1,7.1,0,0,0-.05-.88,2.19,2.19,0,0,0-.13-.57.74.74,0,0,0-.23-.3.57.57,0,0,0-.32-.09h-3.49V18.38a.52.52,0,0,0-.11-.32.85.85,0,0,0-.36-.25,3.05,3.05,0,0,0-.7-.14,11,11,0,0,0-1.11-.05c-.43,0-.79,0-1.09.05a3.17,3.17,0,0,0-.7.14.69.69,0,0,0-.36.25.51.51,0,0,0-.1.32h0V22H191.4a.57.57,0,0,0-.32.09.65.65,0,0,0-.22.3,2.15,2.15,0,0,0-.14.57,7.34,7.34,0,0,0,0,.88,4,4,0,0,0,.18,1.42c.12.28.29.42.52.42h1.93v8.24a9.2,9.2,0,0,0,.31,2.56,4.43,4.43,0,0,0,.95,1.8,3.93,3.93,0,0,0,1.64,1,7.19,7.19,0,0,0,2.35.34Z"></path>
      <path class="cls-2" d="M126.82,53.76a1.06,1.06,0,0,0,.63.07.68.68,0,0,0,.35-.17.59.59,0,0,0,.19-.29h0l0-.18.2,0,.48.09a5.1,5.1,0,0,0,2,0,5.43,5.43,0,0,0,1.89-.75,3.53,3.53,0,0,0,1.66-1.93,1.1,1.1,0,0,0,.06-.31,1.44,1.44,0,0,0-.05-.4,1.91,1.91,0,0,0-.15-.58,2.26,2.26,0,0,0-.39-.47,3.82,3.82,0,0,0-1.24-.74,5,5,0,0,0-1.27-.31q-.28,0-.27-.09s.1-.15.29-.32a7.12,7.12,0,0,0,.71-.79,4.53,4.53,0,0,0,.51-.74,1.46,1.46,0,0,0,.11-1.39,2,2,0,0,0-1.3-.84,4.08,4.08,0,0,0-1.18-.12,6.46,6.46,0,0,0-1.34.19h0l-.44.11-.22-.13a.89.89,0,0,0-.24-.12,2.4,2.4,0,0,0-.42,0,2.51,2.51,0,0,0-.4,0,.64.64,0,0,0-.2.08.92.92,0,0,0-.22.22,1.37,1.37,0,0,0-.15.34c0,.14-.08.33-.13.58a11,11,0,0,0,0,2.44c.06.85.09,1.73.08,2.63h0V51h-.24a1.24,1.24,0,0,0-.46.14.39.39,0,0,0-.22.26.46.46,0,0,0,0,.29,2.22,2.22,0,0,0,.86.79,1.64,1.64,0,0,1,0,.33,2.87,2.87,0,0,0,0,.45.73.73,0,0,0,.46.51Zm1.78-6,.05-.66a12.21,12.21,0,0,0,0-1.81h0v-.32l.28-.11a5.18,5.18,0,0,1,1.4-.38.72.72,0,0,1,.39,0c.06,0,.1.12.12.26a1.75,1.75,0,0,1-.49,1.15,11.93,11.93,0,0,1-.87,1,7.91,7.91,0,0,1-.78.75h0l-.1.07Zm2,4.23a2.88,2.88,0,0,1-2.17.46,1.14,1.14,0,0,1-.28-.1.85.85,0,0,1,0-.37q0-.36.15-1.62c.08-.84.12-1.29.13-1.36s.08-.06.24-.06a1.18,1.18,0,0,0,.5-.09,4.33,4.33,0,0,1,1-.23,2.83,2.83,0,0,1,1.33.18,1.31,1.31,0,0,1,.76.67,1.4,1.4,0,0,1-.27,1.28A4,4,0,0,1,130.61,52ZM144,54.34a1.88,1.88,0,0,0,.71,0q.34-.12.15-.33a1.3,1.3,0,0,0-.26-.17,2.1,2.1,0,0,1-.78-.69,16.2,16.2,0,0,1-1.28-2.06,17.78,17.78,0,0,0-1-1.65l-.27-.38s.08-.08.26-.18.39-.24.66-.43a6.45,6.45,0,0,0,1-.82,2.15,2.15,0,0,0,.46-.75.75.75,0,0,0,.07-.28,2.94,2.94,0,0,0,0-.37,2.61,2.61,0,0,0-.1-.36,2.69,2.69,0,0,0-.22-.32,3.81,3.81,0,0,0-2-1.26,4.39,4.39,0,0,0-.64-.19,5.67,5.67,0,0,0-.65-.09l-1,0c-.74,0-1.19,0-1.33,0-.29,0-.45.06-.48.19s-.12.13-.34.22a2.15,2.15,0,0,0-.7.4.46.46,0,0,0-.2.41.54.54,0,0,0,.19.3,1.43,1.43,0,0,0,.45.23,1.83,1.83,0,0,0,.43.16s.06,0,.07,0,0,.4,0,1.11-.06,1.3-.07,1.75a4.75,4.75,0,0,1,0,.61c0,.1-.05.15-.11.15s0,0-.05,0a.69.69,0,0,0,0,.13.35.35,0,0,0,.07.09.26.26,0,0,1,.08.19c0,.08,0,.32,0,.7q0,1.4,0,1.86a1.11,1.11,0,0,0,.19.63,2.16,2.16,0,0,0,1.46.39.57.57,0,0,0,.33-.13.87.87,0,0,0,.06-.43c0-.46,0-1.24.08-2.36h0l0-.57.2-.09a.58.58,0,0,1,.26-.07,5.43,5.43,0,0,1,.27.48,12.39,12.39,0,0,0,.89,1.54,11.39,11.39,0,0,0,1,1.32,3.52,3.52,0,0,0,.63.57,3.27,3.27,0,0,0,.66.37,3.32,3.32,0,0,0,.88.21Zm-4.6-6a4.09,4.09,0,0,1,0-1c0-.69,0-1.29,0-1.81h0l0-.75.25,0a2.18,2.18,0,0,1,1.15.1,2,2,0,0,1,.63.46,1.47,1.47,0,0,1,.33.61,1.06,1.06,0,0,1-.24.93A7.41,7.41,0,0,1,139.93,48l-.55.35Zm9.53,5.8a3.59,3.59,0,0,0,1,0,3.51,3.51,0,0,0,.91-.17,2.48,2.48,0,0,0,.6-.32,1.48,1.48,0,0,0,.38-.37.51.51,0,0,0,.05-.36.37.37,0,0,0-.13-.22,1.1,1.1,0,0,0-.28-.12,1.71,1.71,0,0,0-1.3.39,1.07,1.07,0,0,1-.5.24,1.11,1.11,0,0,1-.59-.23,2.31,2.31,0,0,1-.57-.55,2.72,2.72,0,0,1-.36-1.47c0-.39,0-.89,0-1.5a4.77,4.77,0,0,1,.1-1,3.07,3.07,0,0,1,.77-.19c.47-.1,1-.18,1.45-.25a5.6,5.6,0,0,0,.89-.17.68.68,0,0,0,.36-.23.26.26,0,0,0,.07-.12.17.17,0,0,0-.06-.11.65.65,0,0,0-.29-.21.88.88,0,0,0-.32-.07,8.45,8.45,0,0,0-.88,0c-.66,0-1.14.08-1.44.13a2.4,2.4,0,0,1-.47.06,4.67,4.67,0,0,1,0-.86c0-.56.08-.84.14-.86l1.22-.15,2.1-.26a1.09,1.09,0,0,0,.43-.13c.2-.12.28-.24.25-.37a.57.57,0,0,0-.36-.31,1.48,1.48,0,0,0-.59-.11c-.22,0-.71,0-1.46,0a7,7,0,0,1-1.49,0,.74.74,0,0,1,0-.26.46.46,0,0,0,0-.32.58.58,0,0,0-.29-.2,1.63,1.63,0,0,0-.74-.09,1.1,1.1,0,0,0-.61.22,1.51,1.51,0,0,0-.37.74h0l-.05.2-.37.06a2.59,2.59,0,0,0-.58.2c-.36.18-.38.38-.08.59a1.48,1.48,0,0,0,.68.22c.08,0,.11,0,.11.06s-.05.46-.16,1.25a30.68,30.68,0,0,0-.37,3.69,4,4,0,0,0,.14,1.1,4.54,4.54,0,0,0,.14.49,1.26,1.26,0,0,0,.18.28,3.53,3.53,0,0,0,1.1.94,4.72,4.72,0,0,0,1.52.52Zm11.08.22a1.47,1.47,0,0,0,.83,0c.34-.09.44-.36.31-.81-.06-.25-.15-.71-.26-1.39s-.21-1.3-.27-1.88h0l-.13-1.11.1,0a.4.4,0,0,0,.12-.1.27.27,0,0,0,.06-.12.23.23,0,0,0,0-.12.31.31,0,0,0-.18-.18h0l-.15-.07-.17-1.43a16.65,16.65,0,0,0-.31-2,2.54,2.54,0,0,0-.42-.94,1.63,1.63,0,0,0-1.17-.6,1.69,1.69,0,0,0-1.32.23,6.93,6.93,0,0,0-1.31,1.89,30.66,30.66,0,0,0-1.61,3.36c-.06.14-.1.21-.14.22a1.66,1.66,0,0,0-.38.17c-.16.09-.24.15-.25.19s0,.26.21.38h0l.16.11-.15.49a5.19,5.19,0,0,0-.32,1.43.7.7,0,0,0,0,.21.48.48,0,0,0,.1.15,1.28,1.28,0,0,0,.74.33,1.43,1.43,0,0,0,.84-.09.42.42,0,0,0,.16-.13,2.81,2.81,0,0,0,.14-.39c.09-.29.18-.59.26-.89s.17-.58.25-.81h0l.12-.34.52-.12c.36-.09.75-.17,1.18-.26h0l.78-.18.1.49c.06.34.13.68.19,1s.11.63.14.85.07.43.11.65.08.4.11.53a2.37,2.37,0,0,0,.09.36,1.39,1.39,0,0,0,.09.27.71.71,0,0,0,.11.17,1.44,1.44,0,0,0,.69.42Zm-3.49-5.61s0,0,0-.06l.63-1.28h0l.76-1.22.19,1.11c.12.75.17,1.13.16,1.14a4.81,4.81,0,0,1-.9.18l-.81.13Zm10.91,4.52a1.74,1.74,0,0,0,1.76.49.46.46,0,0,0,.21-.16.29.29,0,0,0,.06-.2.77.77,0,0,0-.19-.27,24.7,24.7,0,0,1-2.62-3.57c-.3-.47-.53-.82-.69-1a3,3,0,0,1-.25-.35s.41-.59,1.24-1.72c.42-.54.72-1,.91-1.22a6.71,6.71,0,0,0,.44-.7c.11-.2.16-.33.14-.4a.35.35,0,0,0-.13-.2,1.32,1.32,0,0,0-.85-.21.94.94,0,0,0-.57.16,5.25,5.25,0,0,0-.7.8c-.39.5-.75,1-1.1,1.51l-.38.54a1,1,0,0,1-.16.2,3.73,3.73,0,0,1,0-.57A16.78,16.78,0,0,0,164.4,44c0-.13,0-.21-.05-.26a.66.66,0,0,0,0-.11.3.3,0,0,0-.08-.08,1.3,1.3,0,0,0-.61-.24,1.71,1.71,0,0,0-.72.06.67.67,0,0,0-.3.15,2.11,2.11,0,0,0-.1.63c0,.36,0,.8,0,1.33s0,1.13,0,1.78,0,1.54,0,2.62,0,1.8,0,2.14,0,.41,0,.47a.26.26,0,0,0,.09.16,1.1,1.1,0,0,0,.32.21,1.28,1.28,0,0,0,.81.08c.31,0,.48-.16.52-.33s0-.62.07-1.58.06-1.47.06-1.51.18.18.51.67a20.25,20.25,0,0,0,2.48,3Zm3.17,1a2.88,2.88,0,0,0,.61,0,1.57,1.57,0,0,0,.57-.11.53.53,0,0,0,.3-.41,15.36,15.36,0,0,0,.18-1.71c.12-1.49.19-2.63.22-3.45a1.8,1.8,0,0,1,.66-.08,8.23,8.23,0,0,0,2-.22.69.69,0,0,0,.3-.2.32.32,0,0,0,.07-.13.41.41,0,0,0,0-.12,1,1,0,0,0-.3-.21,1,1,0,0,0-.36-.07c-.13,0-.49,0-1.08,0a5.36,5.36,0,0,1-1.24,0s0-.26-.05-.69,0-.87-.1-1.32a4.44,4.44,0,0,1-.05-.69,9.3,9.3,0,0,1,1.24-.14c.83-.07,1.38-.12,1.66-.12a3.19,3.19,0,0,0,1.29-.22c.13-.09.18-.17.16-.26s-.12-.18-.28-.25a8.42,8.42,0,0,0-3-.1h0l-1.25.1-.13-.11a1.6,1.6,0,0,0-1-.15,1.32,1.32,0,0,0-.57.13h0a.65.65,0,0,0-.26.51c0,.23,0,1-.05,2.29h0v0c0,.75,0,1.88,0,3.38a37.83,37.83,0,0,0,0,3.95c.05.18.24.3.57.39Zm13.17.09a1.44,1.44,0,0,0,.82,0c.34-.09.44-.36.32-.81-.07-.25-.16-.71-.27-1.39s-.21-1.3-.27-1.88h0l-.12-1.11.09,0a.4.4,0,0,0,.12-.1.27.27,0,0,0,.06-.12.16.16,0,0,0,0-.12.31.31,0,0,0-.18-.18h0l-.15-.07L184,47.11q-.17-1.38-.3-2a2.91,2.91,0,0,0-.42-.94,1.66,1.66,0,0,0-1.18-.6,1.69,1.69,0,0,0-1.32.23,6.93,6.93,0,0,0-1.31,1.89,30.66,30.66,0,0,0-1.61,3.36c0,.14-.1.21-.14.22a1.66,1.66,0,0,0-.38.17c-.16.09-.24.15-.25.19s0,.26.21.38h0l.16.11-.15.49a5.06,5.06,0,0,0-.31,1.43,1.69,1.69,0,0,0,0,.21.48.48,0,0,0,.1.15,1.28,1.28,0,0,0,.74.33,1.43,1.43,0,0,0,.84-.09.35.35,0,0,0,.16-.13,2.81,2.81,0,0,0,.14-.39c.09-.29.18-.59.26-.89s.17-.58.25-.81h0l.12-.34.52-.12c.36-.09.75-.17,1.18-.26h0l.79-.18.09.49c.07.34.13.68.19,1s.12.63.15.85.07.43.11.65.07.4.1.53l.09.36a.9.9,0,0,0,.1.27.69.69,0,0,0,.1.17,1.42,1.42,0,0,0,.7.42Zm-3.5-5.61s0,0,0-.06l.63-1.28h0l.76-1.22.19,1.11c.12.75.17,1.13.16,1.14a4.36,4.36,0,0,1-.9.18l-.81.13ZM189,53.63a4.8,4.8,0,0,0,2.23,0A4.29,4.29,0,0,0,193.76,52a3.21,3.21,0,0,0,.7-1.84,4.14,4.14,0,0,0-.09-.76A3,3,0,0,0,192,46.91a12.07,12.07,0,0,0-2.7-.48,4.74,4.74,0,0,1-.81-.11c-.11,0-.17-.08-.19-.15a.64.64,0,0,1,.12-.41,1.55,1.55,0,0,1,.39-.47,1.78,1.78,0,0,1,1.48-.47l.22,0,.09,0a.35.35,0,0,1,.07.09q.17.3.87.3a1.37,1.37,0,0,0,.6-.11c.37-.2.42-.42.16-.67a2.75,2.75,0,0,0-1.43-.53,6.24,6.24,0,0,0-2,0,3.5,3.5,0,0,0-2.4,1.33,2.3,2.3,0,0,0-.24.5.69.69,0,0,0,0,.41.86.86,0,0,0,.35.51,2.67,2.67,0,0,0,1,.42,15.11,15.11,0,0,0,1.8.28,8.72,8.72,0,0,1,1.12.16,2.17,2.17,0,0,1,1.36.84,2.34,2.34,0,0,1,.37,1,3.07,3.07,0,0,1-.07,1.21,2.09,2.09,0,0,1-.37.77,5.12,5.12,0,0,1-.78.84,2.06,2.06,0,0,1-.75.47.5.5,0,0,1-.55-.21,2.08,2.08,0,0,1-.39-.9,2.46,2.46,0,0,1,0-1,1.58,1.58,0,0,1,.61-.87.72.72,0,0,0,.27-.29.25.25,0,0,0,0-.24.67.67,0,0,0-.24-.17,1.59,1.59,0,0,0-.39-.08,2.46,2.46,0,0,0-.46,0,2.11,2.11,0,0,0-1.08.45,2.26,2.26,0,0,0-.8,2.17,2.17,2.17,0,0,0,.77,1.56,2.89,2.89,0,0,0,1,.51Zm9,.15a1.8,1.8,0,0,0,.87,0,.87.87,0,0,0,.35-.18.6.6,0,0,0,.14-.3c0-.16.1-1.06.23-2.67s.19-2.62.2-3,0-1,0-1.77h0V44.67l.5,0a4.75,4.75,0,0,1,.79,0,2,2,0,0,0,1.46-.19.26.26,0,0,0,.09-.32.76.76,0,0,0-.37-.33,4.65,4.65,0,0,0-1.92-.31,21,21,0,0,0-3.11.2,8.62,8.62,0,0,0-1.84.43,1.74,1.74,0,0,0-.93.59.34.34,0,0,0-.07.22.44.44,0,0,0,.15.2,1.22,1.22,0,0,0,.71.25,1.85,1.85,0,0,0,.88-.1l.71-.18a4.44,4.44,0,0,1,.61-.11s0,0,0,0a.22.22,0,0,1,0,.09,1.37,1.37,0,0,1,0,.16c0,.07,0,.16,0,.28a22.62,22.62,0,0,0-.27,3.81c0,2,0,3.16,0,3.49s0,.34,0,.4a1,1,0,0,0,.09.17,1.1,1.1,0,0,0,.67.35Z"></path>
      <path class="cls-3" d="M53.73,6,39.9,11.07h0a6.63,6.63,0,0,1-1.54.18,3.71,3.71,0,0,1-2.32-.64l-.23-.19c-.81-.66-2.28-2-4.22-3.8l-1.12-1c-1-1-2.11-2-3.19-3L24.93.29a1,1,0,0,0-1.72.54L22.15,6.15v.09a1,1,0,0,0,.32.86l7.84,7.34,0,0a9.08,9.08,0,0,0,1.6,1.32,10.87,10.87,0,0,0,9.58,1.55c.64-.19,1.32-.4,2-.63l.89-.28.46-.15c2-.64,4-1.33,6-2l1-.36,1.62-.59a1,1,0,0,0,.65-.76L55.1,7.16A1,1,0,0,0,53.73,6Z"></path>
      <path class="cls-3" d="M43,5.65A4.07,4.07,0,1,1,39.82.86,4.07,4.07,0,0,1,43,5.65"></path>
      <path class="cls-4" d="M63.79,43.79l-9-11.72,0-.08c-.08-.14-.18-.35-.3-.6a5.28,5.28,0,0,1-.5-2.22,2.56,2.56,0,0,1,.17-.89l.07-.18c.36-.91,1.16-2.65,2.29-5l.79-1.64.76-1.55,1.58-3.19,1.07-2.13a1,1,0,0,0-1-1.49l-5.39.57-.1,0a1,1,0,0,0-.72.56l-4.69,9.66-.09.16A11.12,11.12,0,0,0,48,25.79a10.85,10.85,0,0,0,1.36,9.61c.37.56.77,1.14,1.19,1.74l.82,1.16c.95,1.34,1.94,2.72,2.95,4.07l.75,1,1,1.37.65.85a1,1,0,0,0,.92.4l5.4-.57a1,1,0,0,0,.71-1.65Z"></path>
      <path class="cls-4" d="M60.79,33.47A4.07,4.07,0,1,1,64.42,29a4.08,4.08,0,0,1-3.63,4.48"></path>
      <path class="cls-5" d="M31.89,65.47l8.38-12.14.06-.07c.11-.12.27-.28.48-.47a5.26,5.26,0,0,1,1.95-1.17,2.58,2.58,0,0,1,.9-.11H44c1,.08,2.86.3,5.35.63l1.8.25,4.35.63,3.24.48a1,1,0,0,0,1.1-1.43L57.6,47.13l0-.09a1.06,1.06,0,0,0-.76-.52L46.17,45.05,46,45a10.15,10.15,0,0,0-1.85-.12,10.9,10.9,0,0,0-8.73,4.26c-.41.53-.84,1.09-1.28,1.68L33.28,52c-1,1.32-2,2.69-3,4.07l-.74,1-1,1.4-.61.88a1,1,0,0,0-.09,1l2.2,4.95a1,1,0,0,0,1.79.17Z"></path>
      <path class="cls-5" d="M40.79,59.43a4.07,4.07,0,1,1,5.37,2.07,4.06,4.06,0,0,1-5.37-2.07"></path>
      <path class="cls-6" d="M1.71,41.07l14.12,4.22h0a6.6,6.6,0,0,1,1.35.77A3.74,3.74,0,0,1,18.62,48l.08.3c.23.9.56,2.55,1,4.75l.42,2.33.3,1.69.3,1.75.41,2.48.27,1.63a1,1,0,0,0,1.71.6l4-3.62.07-.07a1,1,0,0,0,.25-.88L25.54,48.34l0-.18a10.5,10.5,0,0,0-.47-1.8,10.89,10.89,0,0,0-6.75-7l-2-.7-.89-.31L15,38.22c-1.94-.66-4-1.31-6-1.94L8,36l-1.65-.5a1,1,0,0,0-1,.22l-4,3.63a1,1,0,0,0,.4,1.75Z"></path>
      <path class="cls-6" d="M10.2,47.67a4.07,4.07,0,1,1-.3,5.75,4.07,4.07,0,0,1,.3-5.75"></path>
      <path class="cls-2" d="M15,4.77l.49,14.74v.1c0,.15-.05.38-.11.66a5.39,5.39,0,0,1-.87,2.1,3,3,0,0,1-.66.63l-.25.16c-.95.6-2.85,1.69-5.43,3.1l-.84.46L3.44,28.8.55,30.34a1,1,0,0,0,0,1.81l4.72,2.66.09,0a1,1,0,0,0,.91,0l9.43-5.15.16-.08a9.81,9.81,0,0,0,1.56-1A10.85,10.85,0,0,0,21.85,20c0-.51,0-1,0-1.57v-.55c0-.46,0-.93,0-1.41,0-1.64,0-3.34,0-5l0-1.63-.05-2.09V7.36a1,1,0,0,0-.53-.86L16.51,3.84A1,1,0,0,0,15,4.77Z"></path>
      <path class="cls-2" d="M11.43,14.91a4.07,4.07,0,1,1-5.55,1.55,4.09,4.09,0,0,1,5.55-1.55"></path>
    </g>
  </g>
</svg>
