<svg width="30" height="30" viewBox="0 0 30 30" fill="none" xmlns="http://www.w3.org/2000/svg">
<circle cx="15" cy="15" r="15" fill="#25B578" fill-opacity="0.1"/>
<g clip-path="url(#clip0_2438_5607)">
<path d="M15 8C18.8664 8 22 11.1336 22 15C22 18.8664 18.8664 22 15 22C13.5152 22 12.1344 21.5352 10.9996 20.7449C10.6031 20.4441 10.5058 19.9219 10.7836 19.5254C11.0598 19.1289 11.6039 19.0332 12.0004 19.3094C12.8508 19.9027 13.8844 20.25 15 20.25C17.8984 20.25 20.25 17.8984 20.25 15C20.25 12.077 17.8984 9.75 15 9.75C13.5262 9.75 12.2383 10.3368 11.2867 11.2867L12.1289 12.1289C12.5418 12.5418 12.2492 13.25 11.6668 13.25H8.65625C8.29395 13.25 8 12.9574 8 12.5938V9.5843C8 8.99969 8.70684 8.70684 9.12027 9.12027L10.0502 10.0502C11.3168 8.78449 13.0668 8 14.9754 8H15ZM15 11.5C15.3637 11.5 15.6562 11.7926 15.6562 12.1562V14.7293L17.409 16.5039C17.6879 16.7609 17.6879 17.1766 17.409 17.409C17.1766 17.6879 16.7609 17.6879 16.5039 17.409L14.5352 15.4402C14.4121 15.3418 14.3438 15.175 14.3438 15V12.1562C14.3438 11.7926 14.6363 11.5 15 11.5Z" fill="#25B578"/>
</g>
<defs>
<clipPath id="clip0_2438_5607">
<rect width="14" height="14" fill="white" transform="translate(8 8)"/>
</clipPath>
</defs>
</svg>
