<svg width="30" height="30" viewBox="0 0 30 30" fill="none" xmlns="http://www.w3.org/2000/svg">
<circle cx="15" cy="15" r="15" fill="#C5443F" fill-opacity="0.1"/>
<path d="M22.7484 18.636C22.7484 18.888 22.5324 18.996 22.2804 19.104C21.2724 19.536 20.1924 19.932 19.0404 19.932C17.4204 19.932 16.6644 18.924 14.7204 18.924C13.3164 18.924 11.8404 19.428 10.6524 19.968C10.5804 20.004 10.5084 20.004 10.4364 20.04V22.776C10.4364 23.5285 9.86963 24 9.24842 24C8.56442 24 8.02442 23.46 8.02442 22.776V9.6C7.55642 9.24 7.23242 8.664 7.23242 8.016C7.23242 6.9 8.13242 6 9.24842 6C10.3644 6 11.2644 6.9 11.2644 8.016C11.2644 8.664 10.9764 9.24 10.4724 9.6V10.716C10.6174 10.6677 12.5385 9.708 14.5044 9.708C16.7991 9.708 17.9383 10.68 18.9684 10.68C20.3364 10.68 21.8484 9.708 22.2084 9.708C22.4964 9.708 22.7484 9.924 22.7484 10.176V18.636Z" fill="#C5443F"/>
</svg>
