<svg width="30" height="30" viewBox="0 0 30 30" fill="none" xmlns="http://www.w3.org/2000/svg">
<circle cx="15" cy="15" r="15" fill="black" fill-opacity="0.1"/>
<g clip-path="url(#clip0_2438_5573)">
<path d="M23.5032 12.1087L15.658 9.69842C15.2305 9.56708 14.7692 9.56708 14.342 9.69842L6.49655 12.1087C5.83448 12.3121 5.83448 13.1876 6.49655 13.391L7.86427 13.8111C7.56417 14.1821 7.37967 14.6346 7.36139 15.1302C7.09055 15.2855 6.89986 15.5656 6.89986 15.9C6.89986 16.2032 7.05961 16.4583 7.28967 16.6214L6.57164 19.8524C6.5092 20.1334 6.72295 20.4 7.01067 20.4H8.58877C8.87677 20.4 9.09052 20.1334 9.02808 19.8524L8.31005 16.6214C8.54011 16.4583 8.69986 16.2032 8.69986 15.9C8.69986 15.5746 8.51789 15.3023 8.25942 15.1443C8.2808 14.7218 8.4968 14.3483 8.84133 14.1115L14.3417 15.8015C14.5965 15.8797 15.0854 15.9773 15.6577 15.8015L23.5032 13.3912C24.1655 13.1876 24.1655 12.3124 23.5032 12.1087ZM15.9221 16.6619C15.1197 16.9083 14.436 16.7721 14.0774 16.6619L9.99867 15.4089L9.59986 18.6C9.59986 19.5942 12.0175 20.4 14.9999 20.4C17.9822 20.4 20.3999 19.5942 20.3999 18.6L20.001 15.4086L15.9221 16.6619Z" fill="black"/>
</g>
<defs>
<clipPath id="clip0_2438_5573">
<rect width="18" height="18" fill="white" transform="translate(6 6)"/>
</clipPath>
</defs>
</svg>
